<svg width="12" height="12" viewBox="0 0 12 12" fill="none" xmlns="http://www.w3.org/2000/svg">
<rect width="12" height="12" fill="#E5E5E5"/>
<g id="HEADER_FOR_AUTHORIZED_USER">
<rect id="back__COLOR:primary-header" x="-1189" y="-30" width="1280" height="74" fill="#073042"/>
<g id="profile">
<g id="profile_2">
<rect id="back__COLOR:special-1" x="-9" y="-9" width="30" height="30" rx="6" fill="#0F4157"/>
<path id="icon__COLOR:icon-main" fill-rule="evenodd" clip-rule="evenodd" d="M7.43053 7.96749C8.79195 7.40521 9.75 6.06449 9.75 4.5C9.75 2.42893 8.07107 0.75 6 0.75C3.92893 0.75 2.25 2.42893 2.25 4.5C2.25 6.06451 3.20808 7.40525 4.56953 7.96751C3.17523 8.19979 1.89263 8.76573 0.808594 9.58019L2.19015 11.419C3.25143 10.6217 4.56898 10.1496 6.0001 10.1496C7.43122 10.1496 8.74877 10.6217 9.81006 11.419L11.1916 9.58019C10.1075 8.7657 8.82488 8.19975 7.43053 7.96749Z" fill="white"/>
</g>
</g>
</g>
</svg>
